HIERARCHY
ROOT joint_Root
{
	OFFSET 0.0 0.0 0.0
	CHANNELS 6 Xposition Yposition Zposition Zrotation Xrotation Yrotation 
	JOINT Hips
	{
		OFFSET -0.726466 93.3139 -2.00062
		CHANNELS 6 Xposition Yposition Zposition Zrotation Xrotation Yrotation 
		JOINT Spine
		{
			OFFSET 15.7357 0.0 0.0
			CHANNELS 6 Xposition Yposition Zposition Zrotation Xrotation Yrotation 
			JOINT Chest
			{
				OFFSET 8.98455 -0.406207 0.0
				CHANNELS 6 Xposition Yposition Zposition Zrotation Xrotation Yrotation 
				JOINT Neck
				{
					OFFSET 16.3773 0.0 0.0
					CHANNELS 6 Xposition Yposition Zposition Zrotation Xrotation Yrotation 
					JOINT Head
					{
						OFFSET 6.45672 0.0 0.0
						CHANNELS 6 Xposition Yposition Zposition Zrotation Xrotation Yrotation 
						End Site
						{
							OFFSET 0.0 0.0 0.0
						}
					}
				}
				JOINT Shoulder_L
				{
					OFFSET 12.9942 -0.242716 4.98039
					CHANNELS 6 Xposition Yposition Zposition Zrotation Xrotation Yrotation 
					JOINT UpperArm_L
					{
						OFFSET 5.34809 0.0 0.0
						CHANNELS 6 Xposition Yposition Zposition Zrotation Xrotation Yrotation 
						JOINT LowerArm_L
						{
							OFFSET 24.3286 1.87007e-05 0.0
							CHANNELS 6 Xposition Yposition Zposition Zrotation Xrotation Yrotation 
							JOINT Hand_L
							{
								OFFSET 22.2916 0.0 0.0
								CHANNELS 6 Xposition Yposition Zposition Zrotation Xrotation Yrotation 
								End Site
								{
									OFFSET 0.0 0.0 0.0
								}
							}
						}
					}
				}
				JOINT Shoulder_R
				{
					OFFSET 12.9945 -0.242716 -4.98039
					CHANNELS 6 Xposition Yposition Zposition Zrotation Xrotation Yrotation 
					JOINT UpperArm_R
					{
						OFFSET -5.34813 0.0 0.0
						CHANNELS 6 Xposition Yposition Zposition Zrotation Xrotation Yrotation 
						JOINT LowerArm_R
						{
							OFFSET -24.3289 0.000322201 0.0
							CHANNELS 6 Xposition Yposition Zposition Zrotation Xrotation Yrotation 
							JOINT Hand_R
							{
								OFFSET -22.2915 -0.000108084 0.0
								CHANNELS 6 Xposition Yposition Zposition Zrotation Xrotation Yrotation 
								End Site
								{
									OFFSET 0.0 0.0 0.0
								}
							}
						}
					}
				}
			}
		}
		JOINT UpperLeg_L
		{
			OFFSET -2.19248 -6.46944 0.0
			CHANNELS 6 Xposition Yposition Zposition Zrotation Xrotation Yrotation 
			JOINT LowerLeg_L
			{
				OFFSET 39.0811 0.0 -1.23785e-05
				CHANNELS 6 Xposition Yposition Zposition Zrotation Xrotation Yrotation 
				JOINT Foot_L
				{
					OFFSET 40.9854 0.0 -1.26872e-05
					CHANNELS 6 Xposition Yposition Zposition Zrotation Xrotation Yrotation 
					JOINT Toes_L
					{
						OFFSET 11.7543 0.0 0.0
						CHANNELS 6 Xposition Yposition Zposition Zrotation Xrotation Yrotation 
						End Site
						{
							OFFSET 0.0 0.0 0.0
						}
					}
				}
			}
		}
		JOINT UpperLeg_R
		{
			OFFSET -2.19251 6.46944 0.0
			CHANNELS 6 Xposition Yposition Zposition Zrotation Xrotation Yrotation 
			JOINT LowerLeg_R
			{
				OFFSET -39.0811 -0.00228153 -0.0401928
				CHANNELS 6 Xposition Yposition Zposition Zrotation Xrotation Yrotation 
				JOINT Foot_R
				{
					OFFSET -40.9854 0.0 0.0
					CHANNELS 6 Xposition Yposition Zposition Zrotation Xrotation Yrotation 
					JOINT Toes_R
					{
						OFFSET -11.7543 0.0 0.0
						CHANNELS 6 Xposition Yposition Zposition Zrotation Xrotation Yrotation 
						End Site
						{
							OFFSET 0.0 0.0 0.0
						}
					}
				}
			}
		}
	}
}
MOTION
Frames:	5
Frame Time:	0.0333333
0.000000 0.000000 0.000000 0.000000 0.000000 -0.000000 -3.324730 92.223500 2.148190 87.924500 0.267698 0.072903 15.735700 0.000005 -0.000001 63.653200 86.267600 -59.301400 8.984550 -0.406207 -0.000000 -0.923492 -3.641710 8.673010 16.377300 -0.000001 -0.000001 -0.827560 -2.022980 -0.119650 6.456720 -0.000001 -0.000000 -0.302279 -2.775770 9.648500 12.994200 -0.242716 4.980390 -83.757100 -11.751800 -61.759800 5.348090 -0.000007 -0.000001 -76.733300 -64.845100 -80.450500 24.328600 0.000019 0.000005 2.244970 7.564330 -16.583300 22.291600 -0.000001 0.000005 22.167400 5.329820 -0.780693 12.994500 -0.242716 -4.980390 91.047200 -2.504870 -67.302000 -5.348130 -0.000001 -0.000004 -64.283100 66.935900 15.294100 -24.328900 0.000322 -0.000009 21.419800 1.345280 -86.576000 -22.291500 -0.000108 -0.000004 24.539700 5.645740 -27.620100 -2.192480 -6.469440 -0.000000 -168.692000 -18.276100 -4.336850 39.081100 -0.000007 -0.000012 -0.141155 0.423031 18.452800 40.985400 -0.000006 -0.000013 -8.205860 -1.195950 -61.465400 11.754300 -0.000000 0.000003 -0.000152 -0.001472 -16.633500 -2.192510 6.469440 -0.000001 176.530000 21.237200 177.788000 -39.081100 -0.002282 -0.040193 -0.063881 0.210822 17.681300 -40.985400 0.000008 0.000006 -3.909960 1.234810 -63.797400 -11.754300 -0.000006 -0.000006 -0.000413 -0.006688 -16.845500
0.000000 0.000000 0.000000 0.000000 0.000000 -0.000000 -3.271140 92.252500 2.081200 87.990500 0.703876 0.037556 15.735700 0.000005 -0.000001 64.082600 86.262600 -59.770800 8.984550 -0.406207 -0.000000 -0.893103 -3.591760 8.594450 16.377300 -0.000001 -0.000001 -0.871877 -2.052340 -0.126158 6.456720 -0.000001 -0.000000 -0.276296 -2.818640 9.681340 12.994200 -0.242716 4.980390 -83.798500 -11.641500 -61.697600 5.348090 -0.000007 -0.000001 -78.043300 -64.517600 -82.811200 24.328600 0.000019 0.000005 2.141690 7.236280 -16.535500 22.291600 -0.000001 0.000005 22.037800 5.324500 -0.625876 12.994500 -0.242716 -4.980390 91.034600 -2.465290 -67.224300 -5.348130 -0.000001 -0.000004 -63.740400 67.085200 14.818200 -24.328900 0.000322 -0.000009 21.404900 1.346220 -86.571000 -22.291500 -0.000108 -0.000004 24.512800 5.646530 -27.548000 -2.192480 -6.469440 -0.000000 -168.862000 -18.132500 -4.483330 39.081100 -0.000007 -0.000012 -0.136563 0.412517 18.317100 40.985400 -0.000006 -0.000013 -8.088410 -1.013660 -61.291000 11.754300 -0.000000 0.000003 -0.000122 -0.001220 -16.624200 -2.192510 6.469440 -0.000001 176.484000 21.408500 177.818000 -39.081100 -0.002282 -0.040193 -0.059801 0.199694 17.542700 -40.985400 0.000008 0.000006 -3.809370 0.976793 -63.727600 -11.754300 -0.000006 -0.000006 -0.000376 -0.006111 -16.822000
0.000000 0.000000 0.000000 0.000000 0.000000 -0.000000 -3.210290 92.256600 2.008870 87.993200 1.251500 0.041187 15.735700 0.000005 -0.000001 63.499500 86.253500 -59.184100 8.984550 -0.406207 -0.000000 -0.907477 -3.668880 8.600570 16.377300 -0.000001 -0.000001 -0.729090 -2.012310 -0.342166 6.456720 -0.000001 -0.000000 -0.270763 -2.671800 9.537680 12.994200 -0.242716 4.980390 -83.821300 -11.622800 -61.748700 5.348090 -0.000007 -0.000001 -78.576500 -64.038600 -85.872500 24.328600 0.000019 0.000005 1.923350 6.108440 -17.515600 22.291600 -0.000001 0.000005 21.597300 5.337110 -0.994884 12.994500 -0.242716 -4.980390 91.051100 -2.495800 -67.151800 -5.348130 -0.000001 -0.000004 -62.867200 67.402500 13.947300 -24.328900 0.000322 -0.000009 21.289900 1.341950 -86.561600 -22.291500 -0.000108 -0.000004 24.608200 5.646400 -27.559400 -2.192480 -6.469440 -0.000000 -168.934000 -17.901700 -4.724010 39.081100 -0.000007 -0.000012 -0.139398 0.418619 18.417700 40.985400 -0.000006 -0.000013 -7.970740 -0.675469 -61.229200 11.754300 -0.000000 0.000003 -0.000140 -0.001372 -16.629800 -2.192510 6.469440 -0.000001 176.466000 21.802600 177.829000 -39.081100 -0.002282 -0.040193 -0.056243 0.188213 17.562400 -40.985400 0.000008 0.000006 -3.690070 0.797419 -63.732400 -11.754300 -0.000006 -0.000006 -0.000374 -0.006080 -16.820800
0.000000 0.000000 0.000000 0.000000 0.000000 -0.000000 -3.136660 92.257700 1.968080 88.065400 1.821670 0.205227 15.735700 0.000005 -0.000001 62.755700 86.190300 -58.467900 8.984550 -0.406207 -0.000000 -0.834687 -3.808730 8.546940 16.377300 -0.000001 -0.000001 -0.488894 -1.958410 -0.513303 6.456720 -0.000001 -0.000000 -0.185991 -2.393450 9.280190 12.994200 -0.242716 4.980390 -83.843200 -11.615800 -61.819700 5.348090 -0.000007 -0.000001 -78.498500 -63.287300 -89.666000 24.328600 0.000019 0.000005 1.733960 4.981590 -19.220800 22.291600 -0.000001 0.000005 21.080400 5.355430 -1.541840 12.994500 -0.242716 -4.980390 91.101100 -2.596830 -67.012400 -5.348130 -0.000001 -0.000004 -61.757900 67.808000 12.607200 -24.328900 0.000322 -0.000009 21.147600 1.411080 -86.358300 -22.291500 -0.000108 -0.000004 24.743100 5.646080 -27.589000 -2.192480 -6.469440 -0.000000 -169.046000 -17.662500 -4.790040 39.081100 -0.000007 -0.000012 -0.138508 0.413702 18.510700 40.985400 -0.000006 -0.000013 -7.836670 -0.357005 -61.169700 11.754300 -0.000000 0.000003 -0.000146 -0.001422 -16.631600 -2.192510 6.469440 -0.000001 176.296000 22.181800 178.020000 -39.081100 -0.002282 -0.040193 -0.053331 0.178309 17.627300 -40.985400 0.000008 0.000006 -3.639600 0.589441 -63.778800 -11.754300 -0.000006 -0.000006 -0.000465 -0.007484 -16.877800
0.000000 0.000000 0.000000 0.000000 0.000000 -0.000000 -3.036120 92.261200 1.921010 88.242300 2.351340 0.442760 15.735700 0.000005 -0.000001 62.124600 86.132900 -57.914200 8.984550 -0.406207 -0.000000 -0.770689 -3.928610 8.393280 16.377300 -0.000001 -0.000001 -0.121854 -1.899070 -0.735234 6.456720 -0.000001 -0.000000 0.036736 -2.126580 9.195270 12.994200 -0.242716 4.980390 -83.789700 -11.734200 -61.850500 5.348090 -0.000007 -0.000001 -77.952200 -62.125400 -93.779400 24.328600 0.000019 0.000005 1.393280 3.544970 -21.476500 22.291600 -0.000001 0.000005 20.305800 5.378120 -2.241780 12.994500 -0.242716 -4.980390 91.124900 -2.638860 -66.901400 -5.348130 -0.000001 -0.000004 -61.019400 68.054600 11.725200 -24.328900 0.000322 -0.000009 21.140500 1.447770 -86.262500 -22.291500 -0.000108 -0.000004 24.815300 5.647380 -27.471000 -2.192480 -6.469440 -0.000000 -169.250000 -17.551400 -4.690290 39.081100 -0.000007 -0.000012 -0.136283 0.407305 18.500200 40.985400 -0.000006 -0.000013 -7.664820 0.069182 -61.073400 11.754300 -0.000000 0.000003 -0.000156 -0.001505 -16.634700 -2.192510 6.469440 -0.000001 175.940000 22.525800 178.295000 -39.081100 -0.002282 -0.040193 -0.054258 0.180396 17.703300 -40.985400 0.000008 0.000006 -3.742140 0.448977 -63.814200 -11.754300 -0.000006 -0.000006 -0.000370 -0.006004 -16.817700
